Coordinates
version=1
nRows=9
nColumns=42
inDegrees=yes

Units are S.I. units (second, meters, Newtons, ...)
If the header above contains a line with 'inDegrees', this indicates whether rotational values are in degrees (yes) or radians (no).

endheader
time	pelvis_tilt	pelvis_list	pelvis_rotation	pelvis_tx	pelvis_ty	pelvis_tz	hip_flexion_r	hip_adduction_r	hip_rotation_r	knee_angle_r	knee_adduction_r	knee_angle_r_beta	ankle_angle_r	subtalar_angle_r	mtp_angle_r	hip_flexion_l	hip_adduction_l	hip_rotation_l	knee_angle_l	knee_adduction_l	knee_angle_l_beta	ankle_angle_l	subtalar_angle_l	mtp_angle_l	lumbar_extension	lumbar_bending	lumbar_rotation	arm_flex_r	arm_add_r	arm_rot_r	elbow_flex_r	pro_sup_r	wrist_flex_r	wrist_dev_r	arm_flex_l	arm_add_l	arm_rot_l	elbow_flex_l	pro_sup_l	wrist_flex_l	wrist_dev_l
      2.43000000	      9.71139403	     -1.43370542	      1.04598587	      0.06425759	      0.90794584	      0.24813243	    -11.66025003	      1.80382952	     -8.40589218	     17.36848536	      9.40597135	      0.30313726	     21.08524742	     16.45878455	     -7.50894899	     20.46585277	     -0.54919958	    -12.66069540	     31.78748060	     -3.25299658	      0.55479620	     11.77548011	      3.32093498	     -7.50894899	    -21.70652209	      7.13283039	     -1.48729315	     18.13678867	    -13.73453505	     -4.88132393	     33.66827926	     90.00000001	      0.00000000	      0.00000000	     -7.03966622	     -5.07151204	    -29.40204220	     39.57903449	     90.00000001	      0.00000000	      0.00000000
      2.44000000	      9.69819797	     -1.38969116	      1.20725103	      0.07119648	      0.90713539	      0.24742193	    -12.40983050	      1.69013860	     -8.32757139	     16.95222904	      9.62731973	      0.29587221	     21.41014820	     16.60117483	     -7.50873830	     20.59353879	     -0.23604949	    -13.02702403	     29.69087517	     -3.35493901	      0.51820353	     11.78518297	      4.77285929	     -7.50873830	    -21.69935357	      7.20002368	     -1.65777159	     18.44904204	    -13.72976094	     -4.48171450	     33.98473385	     90.00000001	      0.00000000	      0.00000000	     -7.04901902	     -5.01985868	    -29.42286107	     39.21734575	     90.00000001	      0.00000000	      0.00000000
      2.45000000	      9.72547550	     -1.30883536	      1.30317506	      0.07832904	      0.90630644	      0.24674735	    -13.20798374	      1.52461624	     -8.15927039	     16.52647944	      9.86143232	      0.28844148	     21.62986911	     16.66150403	     -7.50853557	     20.65440992	      0.11019836	    -13.64004010	     27.76824669	     -3.55407839	      0.48464733	     11.80335044	      6.38810154	     -7.50853557	    -21.71932910	      7.20027834	     -1.77760373	     18.68677590	    -13.73673148	     -4.04181154	     34.35296480	     90.00000001	      0.00000000	      0.00000000	     -7.09249468	     -4.95560297	    -29.48641751	     38.89728534	     90.00000001	      0.00000000	      0.00000000
      2.46000000	      9.48783961	     -1.48697351	      1.45912151	      0.08530877	      0.90471462	      0.24617848	    -13.46170869	      1.69051735	     -8.17113821	     16.56902600	      9.96263741	      0.28918406	     21.71858132	     16.56703343	     -7.50844565	     21.38853517	     -0.00335576	    -14.07318298	     26.81672140	     -3.44267057	      0.46804008	     11.81000145	      6.68381958	     -7.50844565	    -21.44284152	      7.48227789	     -1.92824694	     18.93222799	    -13.66288187	     -3.93151155	     34.69361120	     90.00000001	      0.00000000	      0.00000000	     -7.29415614	     -4.86788481	    -29.45047428	     38.75462083	     90.00000001	      0.00000000	      0.00000000
      2.47000000	      9.82056881	     -1.26274641	      1.42486186	      0.09287897	      0.90437242	      0.24552619	    -14.76734584	      1.39137062	     -7.31576547	     15.76949050	     10.26868014	      0.27522953	     21.91978607	     15.98798504	     -7.50788517	     20.95706439	      0.49624638	    -15.62050639	     24.98280972	     -4.03787665	      0.43603229	     12.21751129	     11.01200008	     -7.50788517	    -21.78498239	      7.28256148	     -1.94264603	     19.00141078	    -13.83926922	     -2.88772914	     35.21825602	     90.00000001	      0.00000000	      0.00000000	     -7.21596504	     -4.82041769	    -29.68427864	     38.25728046	     90.00000001	      0.00000000	      0.00000000
      2.48000000	      9.64093574	     -1.39970513	      1.61192044	      0.09988757	      0.90274599	      0.24475608	    -15.02051332	      1.54552763	     -7.24667428	     15.92744478	     10.30884697	      0.27798635	     22.01254885	     15.89077813	     -7.50781379	     21.61278313	      0.46810752	    -15.87563700	     24.45341156	     -3.85188184	      0.42679255	     12.16924015	     11.07816163	     -7.50781379	    -21.58859768	      7.52830529	     -2.08784455	     19.18098299	    -13.79422775	     -2.85132466	     35.50307173	     90.00000001	      0.00000000	      0.00000000	     -7.34677726	     -4.72988436	    -29.63507748	     38.12605684	     90.00000001	      0.00000000	      0.00000000
      2.49000000	      9.66453825	     -1.32994718	      1.74109800	      0.10721881	      0.90164170	      0.24394764	    -15.79522684	      1.54088033	     -6.67743797	     15.46324323	     10.34852169	      0.26988451	     22.76808109	     15.59720715	     -7.50773129	     21.62510935	      0.96809776	    -16.01009872	     23.26207493	     -4.08433600	      0.40599980	     11.89608644	     12.47482508	     -7.50773129	    -21.57744171	      7.52500281	     -2.17700500	     19.22057185	    -13.81115325	     -2.57711608	     35.93591315	     90.00000001	      0.00000000	      0.00000000	     -7.20344178	     -4.72147485	    -29.76492549	     37.36215989	     90.00000001	      0.00000000	      0.00000000
      2.50000000	      9.81532357	     -1.32605493	      1.67347449	      0.11489296	      0.90060501	      0.24348692	    -16.66641413	      1.47223964	     -5.73739244	     15.10852624	     10.65233287	      0.26369353	     22.50657676	     14.40244912	     -7.50740372	     21.72849548	      1.01597668	    -17.47330199	     22.87997777	     -4.37059475	      0.39933094	     12.20558376	     15.21388957	     -7.50740372	    -21.71777136	      7.52254307	     -2.09187464	     19.16396978	    -13.91189579	     -1.93358616	     36.48784599	     90.00000001	      0.00000000	      0.00000000	     -7.24778517	     -4.60721645	    -30.07211279	     37.08097444	     90.00000001	      0.00000000	      0.00000000
      2.51000000	      9.74594027	     -1.40710047	      1.82518662	      0.12229384	      0.89903533	      0.24269808	    -17.11956826	      1.63008616	     -5.51480368	     15.13254334	     10.59320949	      0.26411271	     22.83655046	     14.23248326	     -7.50734546	     22.11666540	      1.18006556	    -17.62048189	     22.79470633	     -4.41754702	      0.39784268	     12.16377425	     15.43440357	     -7.50734546	    -21.60785269	      7.67662661	     -2.25086476	     19.26568678	    -13.82808581	     -1.88716655	     36.75963831	     90.00000001	      0.00000000	      0.00000000	     -7.32693969	     -4.55630681	    -30.06054395	     36.73183087	     90.00000001	      0.00000000	      0.00000000
